<?xml version="1.0" standalone="yes"?>
<svg xmlns="http://www.w3.org/2000/svg" width="1080" height="311">
<path style="fill:#ffffff; stroke:none;" d="M0 0L0 311L1080 311L1080 0L0 0z"/>
<path style="fill:#000000; stroke:none;" d="M514 43.4244C497.592 45.6051 482.298 49.8251 468 58.4498C441.491 74.4401 422.779 104.809 422.015 136C421.743 147.072 423.042 158.436 426.519 169C427.941 173.318 433.492 181.357 432.335 185.852C431.429 189.37 426.753 188.881 424 189.089C416.015 189.691 407.969 190.405 400 191.17C398.074 191.355 390.262 191.513 390.921 194.83C391.671 198.605 399.643 196.255 402 196.09C411.345 195.435 420.658 194.265 430 194.447C432.211 194.49 434.673 193.359 436.829 193.862C440.37 194.688 442.906 199.467 445.167 201.999C449.986 207.397 455.168 212.543 461 216.844C480.632 231.323 507.51 239.643 532 236.715C562.177 233.105 589.491 219.339 607.229 194C610.901 188.754 614.127 182.93 616.548 177C617.917 173.648 618.658 169.3 620.924 166.418C626.535 159.282 641.027 160.419 642.279 149C643.601 136.933 627.469 137.193 623.728 128.895C621.863 124.759 621.756 119.406 620.622 115C618.746 107.713 615.856 100.535 612.127 94C593.156 60.7439 552.732 38.2766 514 43.4244z"/>
<path style="fill:#ffffff; stroke:none;" d="M437 182C446.616 177.516 454.547 166.453 462 159L493 128C499.099 121.901 506.026 116.062 511 109C506.369 107.42 501.477 106.539 497 104.481C495.229 103.668 493.549 102.674 492.015 101.468C481.836 93.4612 488.249 84.0638 497 78.0934C515.48 65.4857 537.569 62.7077 558 55C548.946 49.0163 534.591 48.0041 524 48C487.94 47.9861 452.684 67.1716 436.27 100C422.765 127.011 425.933 155.017 437 182M560 60C541.869 63.7423 522.419 69.1829 506 77.8897C500.928 80.5793 491.457 85.2212 491.457 91.9961C491.457 100.249 509.541 105.697 516 103.393C521.459 101.445 526.01 94.9901 530 91C539.918 81.082 551.919 71.4717 560 60M570 60C573.31 74.4371 577.819 88.7459 581.86 103C583.12 107.449 583.769 115.865 587.513 118.911C590.26 121.147 594.691 121.483 598 122.427C604.742 124.352 611.334 126.831 618 129C616.807 101.284 595.293 70.9129 570 60M565 62C551.269 75.7312 534.179 89.1297 523 105C542.186 109.964 561.887 112.616 581 118C578.228 105.908 574.524 93.9373 571.14 82C569.293 75.4834 568.237 67.9571 565 62M441 188C454.086 185.571 467.755 185.156 481 183.831C505.672 181.363 530.523 178.247 555 174.246C564.346 172.719 573.714 171.257 583 169.4C585.758 168.848 591.129 168.76 592.933 166.262C595.067 163.305 592.005 157.051 591.14 154C588.273 143.884 584.405 133.423 583 123C567.954 119.896 553.048 116.119 538 113.003C532.583 111.882 524.479 108.876 519 110.042C515.702 110.745 513.281 113.739 511 116.001L498 129L459 168C452.949 174.051 444.649 180.176 441 188M588 125C591.765 138.366 596.98 152.273 599 166C603.817 164.751 611.575 164.265 615.411 160.911C617.087 159.446 617.371 157.06 617.749 154.996C618.671 149.963 621.372 138.9 617.397 134.702C615.371 132.563 611.69 131.898 609 131C602.138 128.71 595.176 126.056 588 125M624 137C624 144.54 622.946 151.552 622 159C626.817 157.612 636.797 154.258 636.623 147.989C636.457 141.981 628.623 138.935 624 137M601 170C601.78 175.79 603.817 181.286 605 187C610.062 181.594 612.657 173.926 615 167L601 170M444 192C466.5 227.971 518.501 240.811 557 226.186C570.145 221.192 582.614 214.049 592.424 203.83C595.339 200.794 599.74 197.225 600.842 193C601.756 189.494 599.805 185.335 598.86 182C598.138 179.456 597.69 175.64 595.861 173.618C593.557 171.072 588.772 173.204 586 173.789C576.755 175.743 567.349 177.351 558 178.728C536.03 181.965 514.026 184.571 492 187.285C476.205 189.231 459.922 191.956 444 192z"/>
</svg>
