<?xml version="1.0" encoding="utf-8"?>
<svg xmlns="http://www.w3.org/2000/svg" width="1080" height="311">
  <defs>
    <radialGradient gradientUnits="userSpaceOnUse" cx="538.676" cy="153.58" r="121.53" id="gradient-1" gradientTransform="matrix(1, 0, 0, 1, -190.000003, 0)">
      <stop offset="0" style="stop-color: rgb(18.824% 59.216% 100%)"/>
      <stop offset="1" style="stop-color: rgb(0% 36.501% 62.927%)"/>
    </radialGradient>
  </defs>
  <path style="stroke: none; fill: rgb(29, 39, 58); visibility: hidden;" d="M 160.885 2.296 L 160.885 313.296 L 513.31 314.848 L 513.31 3.848 L 160.885 2.296 Z"/>
  <path style="stroke-width: 3px; fill: rgb(29, 39, 58); stroke: rgb(255, 255, 255);" d="M 328.205 39.868 C 309.273 42.434 291.623 47.401 275.123 57.549 C 244.535 76.368 222.942 112.105 222.059 148.814 C 221.745 161.844 223.246 175.215 227.256 187.65 C 228.899 192.729 235.303 202.192 233.968 207.479 C 232.922 211.622 227.528 211.046 224.352 211.29 C 215.136 211.999 205.853 212.837 196.654 213.74 C 194.434 213.955 185.417 214.143 186.179 218.044 C 187.046 222.488 196.243 219.723 198.965 219.527 C 209.747 218.758 220.495 217.382 231.275 217.596 C 233.826 217.645 236.666 216.314 239.153 216.906 C 243.242 217.879 246.168 223.502 248.777 226.482 C 254.336 232.834 260.315 238.891 267.046 243.953 C 289.701 260.993 320.717 270.784 348.977 267.338 C 383.8 263.09 415.318 246.888 435.788 217.068 C 440.025 210.896 443.749 204.041 446.54 197.062 C 448.121 193.12 448.976 188.001 451.592 184.61 C 458.065 176.21 474.787 177.549 476.233 164.112 C 477.76 149.911 459.144 150.215 454.827 140.452 C 452.673 135.583 452.551 129.285 451.242 124.099 C 449.077 115.524 445.743 107.077 441.44 99.386 C 419.546 60.249 372.901 33.808 328.205 39.868 Z"/>
  <path style="stroke-width: 2px; paint-order: fill; stroke: rgb(255, 255, 255); fill: url(&quot;#gradient-1&quot;);" d="M 238.339 203.084 C 249.508 197.793 258.72 184.735 267.377 175.938 L 303.384 139.352 C 310.467 132.153 318.513 125.261 324.292 116.928 C 318.912 115.063 313.23 114.023 308.03 111.595 C 305.973 110.634 304.022 109.46 302.24 108.038 C 290.418 98.588 297.866 87.497 308.03 80.45 C 329.495 65.57 355.152 62.291 378.883 53.195 C 368.366 46.132 351.692 44.938 339.391 44.933 C 297.507 44.917 256.556 67.56 237.491 106.306 C 221.805 138.184 225.485 171.239 238.339 203.084 M 381.205 59.096 C 360.146 63.513 337.554 69.934 318.484 80.209 C 312.592 83.384 301.591 88.863 301.591 96.859 C 301.591 106.599 322.597 113.029 330.099 110.31 C 336.44 108.011 341.725 100.393 346.36 95.684 C 357.88 83.978 371.819 72.635 381.205 59.096 M 392.82 59.096 C 396.665 76.136 401.902 93.023 406.595 109.846 C 408.059 115.097 408.814 125.03 413.162 128.625 C 416.352 131.263 421.5 131.66 425.343 132.774 C 433.173 135.046 440.83 137.972 448.573 140.532 C 447.188 107.821 422.199 71.976 392.82 59.096 M 387.013 61.456 C 371.064 77.663 351.214 93.476 338.229 112.207 C 360.513 118.065 383.396 121.195 405.597 127.55 C 402.377 113.278 398.075 99.15 394.144 85.06 C 392 77.37 390.772 68.488 387.013 61.456 M 242.985 210.166 C 258.185 207.298 274.062 206.809 289.446 205.246 C 318.103 202.332 346.968 198.655 375.398 193.933 C 386.254 192.131 397.135 190.405 407.92 188.214 C 411.124 187.562 417.362 187.458 419.457 184.51 C 421.936 181.02 418.379 173.639 417.375 170.038 C 414.044 158.098 409.552 145.752 407.92 133.451 C 390.444 129.788 373.131 125.329 355.652 121.652 C 349.36 120.329 339.947 116.782 333.584 118.157 C 329.753 118.987 326.941 122.52 324.292 125.191 L 309.192 140.532 L 263.892 186.561 C 256.865 193.703 247.224 200.931 242.985 210.166 M 413.727 135.811 C 418.101 151.586 424.159 167.999 426.504 184.201 C 432.1 182.727 441.11 182.153 445.566 178.195 C 447.512 176.466 447.842 173.65 448.281 171.213 C 449.353 165.274 452.49 152.216 447.872 147.262 C 445.52 144.738 441.244 143.952 438.119 142.892 C 430.149 140.19 422.063 137.058 413.727 135.811 M 455.543 149.974 C 455.543 158.873 454.318 167.149 453.218 175.938 C 458.813 174.301 470.405 170.343 470.204 162.944 C 470.01 155.853 460.912 152.259 455.543 149.974 M 428.827 188.923 C 429.733 195.755 432.1 202.242 433.473 208.986 C 439.353 202.605 442.368 193.555 445.088 185.382 L 428.827 188.923 M 246.47 214.887 C 272.604 257.341 333.004 272.496 377.721 255.234 C 392.989 249.341 407.471 240.91 418.866 228.849 C 422.252 225.266 427.364 221.054 428.645 216.068 C 429.705 211.929 427.439 207.021 426.341 203.084 C 425.503 200.082 424.983 195.578 422.858 193.192 C 420.181 190.187 414.625 192.703 411.404 193.394 C 400.666 195.7 389.741 197.598 378.883 199.223 C 353.364 203.043 327.806 206.119 302.223 209.322 C 283.877 211.619 264.963 214.834 246.47 214.887 Z"/>
</svg>