<?xml version="1.0" encoding="utf-8"?>
<svg xmlns="http://www.w3.org/2000/svg" width="1080" height="311">
  <defs>
    <radialGradient gradientUnits="userSpaceOnUse" cx="538.676" cy="153.58" r="121.53" id="gradient-1">
      <stop offset="0" style="stop-color: rgb(18.824% 59.216% 100%)"/>
      <stop offset="1" style="stop-color: rgb(0% 36.501% 62.927%)"/>
    </radialGradient>
  </defs>
  <path style="stroke: none; fill: rgb(29, 39, 58);" d="M 350.885 2.296 L 350.885 313.296 L 703.31 314.848 L 703.31 3.848 L 350.885 2.296 Z"/>
  <path style="stroke-width: 3px; fill: rgb(29, 39, 58); stroke: rgb(255, 255, 255);" d="M 518.205 39.868 C 499.273 42.434 481.623 47.401 465.123 57.549 C 434.535 76.368 412.942 112.105 412.059 148.814 C 411.745 161.844 413.246 175.215 417.256 187.65 C 418.899 192.729 425.303 202.192 423.968 207.479 C 422.922 211.622 417.528 211.046 414.352 211.29 C 405.136 211.999 395.853 212.837 386.654 213.74 C 384.434 213.955 375.417 214.143 376.179 218.044 C 377.046 222.488 386.243 219.723 388.965 219.527 C 399.747 218.758 410.495 217.382 421.275 217.596 C 423.826 217.645 426.666 216.314 429.153 216.906 C 433.242 217.879 436.168 223.502 438.777 226.482 C 444.336 232.834 450.315 238.891 457.046 243.953 C 479.701 260.993 510.717 270.784 538.977 267.338 C 573.8 263.09 605.318 246.888 625.788 217.068 C 630.025 210.896 633.749 204.041 636.54 197.062 C 638.121 193.12 638.976 188.001 641.592 184.61 C 648.065 176.21 664.787 177.549 666.233 164.112 C 667.76 149.911 649.144 150.215 644.827 140.452 C 642.673 135.583 642.551 129.285 641.242 124.099 C 639.077 115.524 635.743 107.077 631.44 99.386 C 609.546 60.249 562.901 33.808 518.205 39.868 Z"/>
  <path style="stroke-width: 2px; paint-order: fill; stroke: rgb(255, 255, 255); fill: url(&quot;#gradient-1&quot;);" d="M 428.339 203.084 C 439.508 197.793 448.72 184.735 457.377 175.938 L 493.384 139.352 C 500.467 132.153 508.513 125.261 514.292 116.928 C 508.912 115.063 503.23 114.023 498.03 111.595 C 495.973 110.634 494.022 109.46 492.24 108.038 C 480.418 98.588 487.866 87.497 498.03 80.45 C 519.495 65.57 545.152 62.291 568.883 53.195 C 558.366 46.132 541.692 44.938 529.391 44.933 C 487.507 44.917 446.556 67.56 427.491 106.306 C 411.805 138.184 415.485 171.239 428.339 203.084 M 571.205 59.096 C 550.146 63.513 527.554 69.934 508.484 80.209 C 502.592 83.384 491.591 88.863 491.591 96.859 C 491.591 106.599 512.597 113.029 520.099 110.31 C 526.44 108.011 531.725 100.393 536.36 95.684 C 547.88 83.978 561.819 72.635 571.205 59.096 M 582.82 59.096 C 586.665 76.136 591.902 93.023 596.595 109.846 C 598.059 115.097 598.814 125.03 603.162 128.625 C 606.352 131.263 611.5 131.66 615.343 132.774 C 623.173 135.046 630.83 137.972 638.573 140.532 C 637.188 107.821 612.199 71.976 582.82 59.096 M 577.013 61.456 C 561.064 77.663 541.214 93.476 528.229 112.207 C 550.513 118.065 573.396 121.195 595.597 127.55 C 592.377 113.278 588.075 99.15 584.144 85.06 C 582 77.37 580.772 68.488 577.013 61.456 M 432.985 210.166 C 448.185 207.298 464.062 206.809 479.446 205.246 C 508.103 202.332 536.968 198.655 565.398 193.933 C 576.254 192.131 587.135 190.405 597.92 188.214 C 601.124 187.562 607.362 187.458 609.457 184.51 C 611.936 181.02 608.379 173.639 607.375 170.038 C 604.044 158.098 599.552 145.752 597.92 133.451 C 580.444 129.788 563.131 125.329 545.652 121.652 C 539.36 120.329 529.947 116.782 523.584 118.157 C 519.753 118.987 516.941 122.52 514.292 125.191 L 499.192 140.532 L 453.892 186.561 C 446.865 193.703 437.224 200.931 432.985 210.166 M 603.727 135.811 C 608.101 151.586 614.159 167.999 616.504 184.201 C 622.1 182.727 631.11 182.153 635.566 178.195 C 637.512 176.466 637.842 173.65 638.281 171.213 C 639.353 165.274 642.49 152.216 637.872 147.262 C 635.52 144.738 631.244 143.952 628.119 142.892 C 620.149 140.19 612.063 137.058 603.727 135.811 M 645.543 149.974 C 645.543 158.873 644.318 167.149 643.218 175.938 C 648.813 174.301 660.405 170.343 660.204 162.944 C 660.01 155.853 650.912 152.259 645.543 149.974 M 618.827 188.923 C 619.733 195.755 622.1 202.242 623.473 208.986 C 629.353 202.605 632.368 193.555 635.088 185.382 L 618.827 188.923 M 436.47 214.887 C 462.604 257.341 523.004 272.496 567.721 255.234 C 582.989 249.341 597.471 240.91 608.866 228.849 C 612.252 225.266 617.364 221.054 618.645 216.068 C 619.705 211.929 617.439 207.021 616.341 203.084 C 615.503 200.082 614.983 195.578 612.858 193.192 C 610.181 190.187 604.625 192.703 601.404 193.394 C 590.666 195.7 579.741 197.598 568.883 199.223 C 543.364 203.043 517.806 206.119 492.223 209.322 C 473.877 211.619 454.963 214.834 436.47 214.887 Z"/>
</svg>