<?xml version="1.0" encoding="utf-8"?>
<svg xmlns="http://www.w3.org/2000/svg" width="200px" height="200px" viewBox="-100 -100 200 200">
  <defs>
    <radialGradient gradientUnits="userSpaceOnUse" cx="538.676" cy="153.58" r="121.53" id="gradient-1" gradientTransform="matrix(0.669, 0, 0, 0.686712, -349.632513, -103.779878)">
      <stop offset="0" style="stop-color: rgb(18.824% 59.216% 100%)"/>
      <stop offset="1" style="stop-color: rgb(0% 36.501% 62.927%)"/>
    </radialGradient>
  </defs>
  <path style="stroke: none; fill: rgb(29, 39, 58); visibility: hidden;" d="M 160.885 2.296 L 160.885 313.296 L 513.31 314.848 L 513.31 3.848 L 160.885 2.296 Z"/>
  <path style="stroke-width: 3px; fill: rgb(29, 39, 58); stroke: rgb(255, 255, 255);" d="M -2.952 -76.4 C -15.618 -74.643 -27.43 -71.229 -38.463 -64.261 C -58.931 -51.331 -73.373 -26.796 -73.964 -1.588 C -74.173 7.36 -73.168 16.542 -70.488 25.082 C -69.389 28.569 -65.103 35.067 -65.999 38.698 C -66.693 41.543 -70.311 41.148 -72.433 41.315 C -78.594 41.802 -84.815 42.378 -90.969 42.998 C -92.45 43.146 -98.48 43.274 -97.96 45.953 C -97.39 49.006 -91.236 47.106 -89.416 46.972 C -82.204 46.443 -75.012 45.499 -67.8 45.646 C -66.092 45.679 -64.19 44.766 -62.524 45.172 C -59.794 45.839 -57.841 49.701 -56.091 51.748 C -52.37 56.11 -48.372 60.27 -43.865 63.746 C -28.714 75.447 -7.961 82.17 10.944 79.804 C 34.24 76.887 55.326 65.761 69.02 45.282 C 71.856 41.045 74.347 36.337 76.213 31.545 C 77.272 28.838 77.843 25.322 79.593 22.994 C 83.924 17.226 95.111 18.145 96.078 8.917 C 97.1 -0.835 84.646 -0.625 81.758 -7.33 C 80.316 -10.674 80.235 -14.998 79.36 -18.56 C 77.911 -24.449 75.681 -30.249 72.803 -35.53 C 58.155 -62.405 26.949 -80.567 -2.952 -76.4 Z"/>
  <path style="paint-order: fill; stroke: rgb(255, 255, 255); fill: url(&quot;#gradient-1&quot;);" d="M -63.074 35.68 C -55.6 32.047 -49.437 23.079 -43.646 17.039 L -19.558 -8.086 C -14.819 -13.029 -9.436 -17.762 -5.57 -23.484 C -9.17 -24.764 -12.971 -25.479 -16.449 -27.147 C -17.825 -27.806 -19.128 -28.613 -20.32 -29.589 C -28.233 -36.079 -23.245 -43.697 -16.449 -48.534 C -2.089 -58.75 15.075 -61.006 30.951 -67.25 C 23.915 -72.104 12.76 -72.92 4.531 -72.928 C -23.49 -72.936 -50.891 -57.384 -63.64 -30.778 C -74.135 -8.888 -71.672 13.811 -63.074 35.68 M 32.504 -63.195 C 18.416 -60.164 3.302 -55.76 -9.455 -48.701 C -13.398 -46.519 -20.76 -42.756 -20.76 -37.27 C -20.76 -30.577 -6.705 -26.161 -1.685 -28.029 C 2.556 -29.608 6.092 -34.839 9.193 -38.069 C 16.901 -46.111 26.225 -53.896 32.504 -63.195 M 40.275 -63.195 C 42.847 -51.49 46.351 -39.901 49.491 -28.348 C 50.47 -24.741 50.975 -17.92 53.883 -15.452 C 56.017 -13.64 59.462 -13.367 62.033 -12.603 C 67.271 -11.043 72.394 -9.033 77.574 -7.275 C 76.648 -29.738 59.929 -54.354 40.275 -63.195 M 36.39 -61.572 C 25.72 -50.449 12.44 -39.592 3.754 -26.726 C 18.661 -22.703 33.97 -20.554 48.823 -16.189 C 46.669 -25.99 43.791 -35.693 41.16 -45.37 C 39.727 -50.649 38.904 -56.743 36.39 -61.572 M -59.962 40.543 C -49.8 38.574 -39.173 38.239 -28.884 37.165 C -9.711 35.164 9.6 32.639 28.62 29.396 C 35.883 28.159 43.162 26.974 50.377 25.468 C 52.521 25.021 56.694 24.95 58.095 22.926 C 59.754 20.529 57.374 15.46 56.702 12.987 C 54.474 4.787 51.469 -3.69 50.377 -12.137 C 38.685 -14.653 27.103 -17.715 15.41 -20.24 C 11.201 -21.149 4.903 -23.584 0.646 -22.64 C -1.917 -22.07 -3.798 -19.644 -5.57 -17.81 L -15.672 -7.275 L -45.979 24.333 C -50.679 29.238 -57.131 34.202 -59.962 40.543 M 54.262 -10.518 C 57.187 0.316 61.241 11.587 62.81 22.713 C 66.553 21.701 72.581 21.307 75.561 18.589 C 76.864 17.401 77.084 15.467 77.378 13.794 C 78.096 9.716 80.193 0.748 77.105 -2.653 C 75.531 -4.387 72.67 -4.927 70.58 -5.654 C 65.248 -7.51 59.839 -9.661 54.262 -10.518 M 82.237 -0.791 C 82.237 5.32 81.418 11.003 80.681 17.039 C 84.424 15.914 92.179 13.196 92.045 8.115 C 91.915 3.247 85.828 0.778 82.237 -0.791 M 64.364 25.956 C 64.97 30.647 66.553 35.103 67.471 39.733 C 71.405 35.351 73.423 29.137 75.242 23.524 L 64.364 25.956 M -57.629 43.785 C -40.154 72.939 0.257 83.347 30.174 71.492 C 40.388 67.446 50.076 61.656 57.7 53.373 C 59.965 50.912 63.384 48.02 64.242 44.597 C 64.952 41.754 63.436 38.383 62.7 35.68 C 62.14 33.619 61.791 30.526 60.371 28.887 C 58.579 26.824 54.863 28.552 52.708 29.026 C 45.524 30.61 38.215 31.913 30.951 33.028 C 13.879 35.652 -3.22 37.764 -20.337 39.964 C -32.613 41.542 -45.261 43.749 -57.629 43.785 Z"/>
</svg>