<?xml version="1.0" encoding="UTF-8"?>
<svg xmlns="http://www.w3.org/2000/svg" xmlns:xlink="http://www.w3.org/1999/xlink" width="695px" height="200px" viewBox="0 0 694 200" version="1.1">
<defs>
<radialGradient id="radial0" gradientUnits="userSpaceOnUse" cx="538.676025" cy="153.580002" fx="538.676025" fy="153.580002" r="121.529999" gradientTransform="matrix(1,0,0,1,-190,0)">
<stop offset="0" style="stop-color:rgb(18.823529%,59.215686%,100%);stop-opacity:1;"/>
<stop offset="1" style="stop-color:rgb(0%,36.470588%,62.745098%);stop-opacity:1;"/>
</radialGradient>
</defs>
<g id="surface1">
<path style="fill-rule:nonzero;fill:rgb(11.372549%,15.294118%,22.745098%);fill-opacity:1;stroke-width:3;stroke-linecap:butt;stroke-linejoin:miter;stroke:rgb(100%,100%,100%);stroke-opacity:1;stroke-miterlimit:4;" d="M 328.205376 39.865098 C 309.275711 42.434492 291.622613 47.403203 275.124505 57.547148 C 244.535528 76.365078 222.943309 112.105781 222.06187 148.812285 C 221.745767 161.841484 223.247253 175.216914 227.253242 187.65084 C 228.900621 192.728887 235.301693 202.19252 233.970416 207.47709 C 232.924847 211.619707 227.526792 211.04873 224.353611 211.291699 C 215.138013 211.996309 205.855548 212.834551 196.652107 213.739609 C 194.433312 213.952207 185.418318 214.140508 186.178179 218.04623 C 187.04746 222.486484 196.244822 219.722715 198.962086 219.52834 C 209.746037 218.756914 220.493516 217.384141 231.277468 217.596738 C 233.824523 217.645332 236.663365 216.315078 239.15571 216.904277 C 243.240724 217.876152 246.170749 223.500879 248.778593 226.48332 C 254.334699 232.836953 260.316327 238.892949 267.045659 243.952773 C 289.701684 260.990957 320.716183 270.782598 348.976945 267.338516 C 383.802909 263.092637 415.315877 246.886621 435.78958 217.068281 C 440.026567 210.896875 443.746848 204.039082 446.537059 197.059805 C 448.123649 193.117637 448.974694 188.003145 451.594696 184.607656 C 458.062635 176.207012 474.785663 177.549414 476.232439 164.113242 C 477.75824 149.911719 459.144678 150.21543 454.828665 140.45416 C 452.670659 135.582637 452.549081 129.283672 451.24212 124.096289 C 449.078035 115.525566 445.740724 107.076328 441.442948 99.386367 C 419.546785 60.250176 372.903458 33.809102 328.205376 39.865098 Z M 328.205376 39.865098 " transform="matrix(0.642593,0,0,0.643087,0,0)"/>
<path style="fill-rule:nonzero;fill:url(#radial0);stroke-width:2;stroke-linecap:butt;stroke-linejoin:miter;stroke:rgb(100%,100%,100%);stroke-opacity:1;stroke-miterlimit:4;" d="M 238.341138 203.08543 C 249.50806 197.794785 258.717579 184.735215 267.379998 175.939746 L 303.385267 139.354727 C 310.467174 132.150703 318.515625 125.262539 324.290571 116.928711 C 318.910753 115.063926 313.22699 114.025234 308.029539 111.595547 C 305.974874 110.63582 304.02355 109.457422 302.242435 108.036055 C 290.418993 98.590645 297.865634 87.499121 308.029539 80.453027 C 329.494101 65.571191 355.153098 62.291113 378.885086 53.198008 C 368.368606 46.133691 351.694209 44.93707 339.390535 44.930996 C 297.506979 44.918848 256.553494 67.557461 237.490094 106.304902 C 221.806556 138.182402 225.484285 171.238301 238.341138 203.08543 M 381.207223 59.096074 C 360.143867 63.512031 337.55471 69.93248 318.485231 80.210059 C 312.594786 83.386875 301.591994 88.86582 301.591994 96.859492 C 301.591994 106.596465 322.594561 113.029062 330.10199 110.307812 C 336.442273 108.011758 341.724829 100.394687 346.363022 95.681094 C 357.88252 83.976074 371.821416 72.635508 381.207223 59.096074 M 392.817903 59.096074 C 396.665841 76.134258 401.899766 93.020586 406.592669 109.846172 C 408.057682 115.094297 408.811464 125.031719 413.16395 128.627656 C 416.349289 131.263867 421.498109 131.658691 425.339968 132.776348 C 433.175657 135.048105 440.828981 137.969805 448.573487 140.533125 C 447.1875 107.823457 422.197181 71.973418 392.817903 59.096074 M 387.012563 61.458945 C 371.061554 77.664961 351.213977 93.476152 338.229467 112.209043 C 360.514679 118.06459 383.395623 121.192812 405.595731 127.55252 C 402.379998 113.278105 398.076144 99.149473 394.143102 85.057285 C 391.997253 77.367324 390.769317 68.486816 387.012563 61.458945 M 242.985411 210.167969 C 258.182637 207.300938 274.060699 206.808926 289.446371 205.247852 C 318.10226 202.332227 346.970911 198.657324 375.395803 193.931582 C 386.252702 192.133613 397.133916 190.402461 407.917867 188.215742 C 411.121443 187.559727 417.364463 187.456465 419.455602 184.510469 C 421.935789 181.017793 418.379638 173.637617 417.376621 170.035605 C 414.045389 158.099766 409.553089 145.750879 407.917867 133.450586 C 390.441057 129.787832 373.128377 125.329355 355.651567 121.654453 C 349.359915 120.330273 339.949793 116.78293 333.585195 118.155703 C 329.755494 118.987871 326.940967 122.516992 324.290571 125.189648 L 263.890715 186.563555 C 256.863518 193.700762 247.222397 200.929082 242.985411 210.167969 M 413.729287 135.813457 C 418.100009 151.588203 424.160663 168.000742 426.501036 184.200684 C 432.099694 182.724648 441.10861 182.153672 445.564436 178.193281 C 447.509681 176.468203 447.84402 173.649766 448.2817 171.214004 C 449.351585 165.273418 452.488293 152.213848 447.874415 147.263359 C 445.521884 144.736484 441.242345 143.95291 438.117795 142.889922 C 430.14837 140.192969 422.063446 137.058672 413.729287 135.813457 M 455.545974 149.972461 C 455.545974 158.871191 454.318039 167.150352 453.217759 175.939746 C 458.810339 174.299707 470.402783 170.345391 470.202179 162.946992 C 470.007655 155.852305 460.913635 152.256367 455.545974 149.972461 M 428.829251 188.920352 C 429.735005 195.753848 432.099694 202.241113 433.473523 208.983496 C 439.35181 202.605566 442.36694 193.55498 445.090283 185.379082 L 428.829251 188.920352 M 246.468615 214.887637 C 272.601765 257.340352 333.001621 272.495527 377.724018 255.232598 C 392.988112 249.340605 407.46803 240.90959 418.865949 228.846191 C 422.251891 225.268477 427.364238 221.052969 428.646884 216.066035 C 429.704611 211.929492 427.437185 207.021523 426.342985 203.08543 C 425.504098 200.084766 424.981313 195.577695 422.85978 193.190527 C 420.17899 190.189863 414.622884 192.70459 411.401072 193.390977 C 400.665751 195.69918 389.741985 197.60041 378.885086 199.222227 C 353.365904 203.04291 327.80417 206.116465 302.224198 209.323652 C 283.878107 211.619707 264.9606 214.832969 246.468615 214.887637 Z M 246.468615 214.887637 " transform="matrix(0.642593,0,0,0.643087,0,0)"/>
</g>
</svg>
