<?xml version="1.0" encoding="utf-8"?>
<svg xmlns="http://www.w3.org/2000/svg" width="1080" height="311">
  <defs>
    <radialGradient gradientUnits="userSpaceOnUse" cx="102.701" cy="153.849" r="121.53" id="gradient-2">
      <stop offset="0" style="stop-color: rgb(22.745% 4.7059% 63.922%)"/>
      <stop offset="1" style="stop-color: rgb(9.9271% 0% 54.67%)"/>
    </radialGradient>
  </defs>
  <path style="stroke: none; stroke-width: 1; fill: rgb(255, 255, 255);" d="M -79.115 1.371 L -79.115 312.371 L 245.037 312.371 L 245.037 1.371 L -79.115 1.371 Z"/>
  <path style="stroke-width: 2; fill: rgb(255, 255, 255); stroke: rgb(29, 39, 58);" d="M 82.087 39.589 C 63.155 42.155 45.505 47.122 29.005 57.27 C -1.583 76.089 -23.176 111.826 -24.059 148.535 C -24.373 161.565 -22.872 174.936 -18.862 187.371 C -17.219 192.45 -10.815 201.913 -12.15 207.2 C -13.196 211.343 -18.59 210.767 -21.766 211.011 C -30.982 211.72 -40.265 212.558 -49.464 213.461 C -51.684 213.676 -60.701 213.864 -59.939 217.765 C -59.072 222.209 -49.875 219.444 -47.153 219.248 C -36.371 218.479 -25.623 217.103 -14.843 217.317 C -12.292 217.366 -9.452 216.035 -6.965 216.627 C -2.876 217.6 0.05 223.223 2.659 226.203 C 8.218 232.555 14.197 238.612 20.928 243.674 C 43.583 260.714 74.599 270.505 102.859 267.059 C 137.682 262.811 169.2 246.609 189.67 216.789 C 193.907 210.617 197.631 203.762 200.422 196.783 C 202.003 192.841 202.858 187.722 205.474 184.331 C 211.947 175.931 228.669 177.27 230.115 163.833 C 231.642 149.632 213.026 149.936 208.709 140.173 C 206.555 135.304 206.433 129.006 205.124 123.82 C 202.959 115.245 199.625 106.798 195.322 99.107 C 173.428 59.97 126.783 33.529 82.087 39.589 Z"/>
  <path style="stroke-width: 2; paint-order: fill; fill: url(&quot;#gradient-2&quot;); stroke: rgb(0, 0, 0);" d="M -7.636 203.353 C 3.533 198.062 12.745 185.004 21.402 176.207 L 57.409 139.621 C 64.492 132.422 72.538 125.53 78.317 117.197 C 72.937 115.332 67.255 114.292 62.055 111.864 C 59.998 110.903 58.047 109.729 56.265 108.307 C 44.443 98.857 51.891 87.766 62.055 80.719 C 83.52 65.839 109.177 62.56 132.908 53.464 C 122.391 46.401 105.717 45.207 93.416 45.202 C 51.532 45.186 10.581 67.829 -8.484 106.575 C -24.17 138.453 -20.49 171.508 -7.636 203.353 M 135.23 59.365 C 114.171 63.782 91.579 70.203 72.509 80.478 C 66.617 83.653 55.616 89.132 55.616 97.128 C 55.616 106.868 76.622 113.298 84.124 110.579 C 90.465 108.28 95.75 100.662 100.385 95.953 C 111.905 84.247 125.844 72.904 135.23 59.365 M 146.845 59.365 C 150.69 76.405 155.927 93.292 160.62 110.115 C 162.084 115.366 162.839 125.299 167.187 128.894 C 170.377 131.532 175.525 131.929 179.368 133.043 C 187.198 135.315 194.855 138.241 202.598 140.801 C 201.213 108.09 176.224 72.245 146.845 59.365 M 141.038 61.725 C 125.089 77.932 105.239 93.745 92.254 112.476 C 114.538 118.334 137.421 121.464 159.622 127.819 C 156.402 113.547 152.1 99.419 148.169 85.329 C 146.025 77.639 144.797 68.757 141.038 61.725 M -2.99 210.435 C 12.21 207.567 28.087 207.078 43.471 205.515 C 72.128 202.601 100.993 198.924 129.423 194.202 C 140.279 192.4 151.16 190.674 161.945 188.483 C 165.149 187.831 171.387 187.727 173.482 184.779 C 175.961 181.289 172.404 173.908 171.4 170.307 C 168.069 158.367 163.577 146.021 161.945 133.72 C 144.469 130.057 127.156 125.598 109.677 121.921 C 103.385 120.598 93.972 117.051 87.609 118.426 C 83.778 119.256 80.966 122.789 78.317 125.46 L 63.217 140.801 L 17.917 186.83 C 10.89 193.972 1.249 201.2 -2.99 210.435 M 167.752 136.08 C 172.126 151.855 178.184 168.268 180.529 184.47 C 186.125 182.996 195.135 182.422 199.591 178.464 C 201.537 176.735 201.867 173.919 202.306 171.482 C 203.378 165.543 206.515 152.485 201.897 147.531 C 199.545 145.007 195.269 144.221 192.144 143.161 C 184.174 140.459 176.088 137.327 167.752 136.08 M 209.568 150.243 C 209.568 159.142 208.343 167.418 207.243 176.207 C 212.838 174.57 224.43 170.612 224.229 163.213 C 224.035 156.122 214.937 152.528 209.568 150.243 M 182.852 189.192 C 183.758 196.024 186.125 202.511 187.498 209.255 C 193.378 202.874 196.393 193.824 199.113 185.651 L 182.852 189.192 M 0.495 215.156 C 26.629 257.61 87.029 272.765 131.746 255.503 C 147.014 249.61 161.496 241.179 172.891 229.118 C 176.277 225.535 181.389 221.323 182.67 216.337 C 183.73 212.198 181.464 207.29 180.366 203.353 C 179.528 200.351 179.008 195.847 176.883 193.461 C 174.206 190.456 168.65 192.972 165.429 193.663 C 154.691 195.969 143.766 197.867 132.908 199.492 C 107.389 203.312 81.831 206.388 56.248 209.591 C 37.902 211.888 18.988 215.103 0.495 215.156 Z"/>
</svg>