<?xml version="1.0" encoding="utf-8"?>
<svg xmlns="http://www.w3.org/2000/svg" width="200px" height="200px" viewBox="-100 -100 200 200" preserveAspectRatio="none" xmlns:bx="https://boxy-svg.com">
  <defs>
    <radialGradient gradientUnits="userSpaceOnUse" cx="102.701" cy="153.849" r="121.53" id="gradient-2" gradientTransform="matrix(0.671889, 0, 0, 0.679541, -57.664365, -107.116457)">
      <stop offset="0" style="stop-color: rgb(22.745% 4.7059% 63.922%)"/>
      <stop offset="1" style="stop-color: rgb(9.9271% 0% 54.67%)"/>
    </radialGradient>
    <bx:guide x="0" y="0" angle="90"/>
  </defs>
  <path style="stroke: none; stroke-width: 1; fill: rgb(255, 255, 255); visibility: hidden;" d="M -79.115 1.371 L -79.115 312.371 L 245.037 312.371 L 245.037 1.371 L -79.115 1.371 Z"/>
  <path style="fill: rgb(255, 255, 255); stroke-width: 3px; stroke: rgb(0, 0, 0);" d="M -2.228 -79.958 C -14.985 -78.207 -26.878 -74.828 -37.995 -67.919 C -58.605 -55.111 -73.162 -30.787 -73.748 -5.8 C -73.96 3.068 -72.95 12.172 -70.253 20.634 C -69.143 24.092 -64.826 30.533 -65.731 34.131 C -66.437 36.951 -70.069 36.559 -72.206 36.724 C -78.417 37.208 -84.673 37.779 -90.869 38.393 C -92.374 38.539 -98.442 38.667 -97.922 41.323 C -97.338 44.348 -91.159 42.465 -89.315 42.332 C -82.05 41.808 -74.811 40.872 -67.537 41.018 C -65.82 41.05 -63.907 40.145 -62.238 40.548 C -59.485 41.211 -57.508 45.038 -55.749 47.066 C -52.003 51.39 -47.975 55.513 -43.439 58.957 C -28.173 70.557 -7.273 77.221 11.77 74.876 C 35.234 71.983 56.472 60.957 70.266 40.658 C 73.12 36.456 75.63 31.791 77.511 27.042 C 78.575 24.359 79.151 20.873 80.916 18.566 C 85.277 12.848 96.544 13.759 97.52 4.615 C 98.547 -5.053 86.005 -4.845 83.094 -11.491 C 81.644 -14.805 81.562 -19.092 80.679 -22.622 C 79.22 -28.46 76.973 -34.209 74.075 -39.444 C 59.321 -66.082 27.89 -84.081 -2.228 -79.958 Z"/>
  <path style="stroke-width: 2; paint-order: fill; fill: url(&quot;#gradient-2&quot;); stroke: rgb(0, 0, 0); transform-box: fill-box; transform-origin: 50% 50%;" d="M -62.794 31.071 C -55.293 27.474 -49.099 18.601 -43.283 12.623 L -19.096 -12.237 C -14.331 -17.131 -8.929 -21.814 -5.046 -27.476 C -8.661 -28.745 -12.477 -29.451 -15.972 -31.1 C -17.356 -31.752 -18.666 -32.55 -19.861 -33.518 C -27.804 -39.939 -22.798 -47.477 -15.972 -52.265 C -1.546 -62.377 15.688 -64.605 31.632 -70.785 C 24.571 -75.587 13.364 -76.395 5.1 -76.401 C -23.039 -76.408 -50.551 -61.023 -63.365 -34.693 C -73.902 -13.033 -71.429 9.431 -62.794 31.071 M 33.198 -66.775 C 19.047 -63.774 3.862 -59.411 -8.95 -52.429 C -12.908 -50.271 -20.299 -46.549 -20.299 -41.115 C -20.299 -34.495 -6.181 -30.126 -1.142 -31.974 C 3.118 -33.537 6.671 -38.712 9.781 -41.913 C 17.522 -49.867 26.888 -57.575 33.198 -66.775 M 40.999 -66.775 C 43.586 -55.195 47.098 -43.721 50.256 -32.289 C 51.238 -28.721 51.747 -21.97 54.665 -19.527 C 56.807 -17.736 60.267 -17.465 62.847 -16.71 C 68.11 -15.164 73.256 -13.177 78.456 -11.437 C 77.528 -33.665 60.737 -58.023 40.999 -66.775 M 37.095 -65.171 C 26.383 -54.159 13.041 -43.413 4.32 -30.685 C 19.289 -26.704 34.668 -24.575 49.585 -20.258 C 47.422 -29.957 44.533 -39.557 41.885 -49.132 C 40.447 -54.358 39.622 -60.394 37.095 -65.171 M -59.666 35.883 C -49.457 33.932 -38.795 33.602 -28.456 32.538 C -9.206 30.559 10.193 28.06 29.294 24.852 C 36.589 23.626 43.9 22.455 51.144 20.964 C 53.3 20.523 57.487 20.451 58.897 18.449 C 60.562 16.077 58.171 11.062 57.499 8.613 C 55.255 0.501 52.238 -7.89 51.144 -16.249 C 39.405 -18.737 27.768 -21.768 16.023 -24.266 C 11.798 -25.166 5.474 -27.575 1.203 -26.641 C -1.377 -26.077 -3.267 -23.676 -5.046 -21.863 L -15.192 -11.437 L -45.625 19.842 C -50.348 24.696 -56.826 29.607 -59.666 35.883 M 55.047 -14.646 C 57.983 -3.925 62.055 7.229 63.633 18.239 C 67.39 17.236 73.443 16.845 76.44 14.156 C 77.744 12.981 77.966 11.069 78.261 9.412 C 78.979 5.376 81.09 -3.498 77.986 -6.865 C 76.406 -8.579 73.531 -9.113 71.435 -9.833 C 66.078 -11.668 60.644 -13.797 55.047 -14.646 M 83.139 -5.02 C 83.139 1.027 82.319 6.652 81.581 12.623 C 85.336 11.51 93.13 8.82 92.989 3.793 C 92.862 -1.026 86.748 -3.468 83.139 -5.02 M 65.193 21.447 C 65.798 26.09 67.39 30.497 68.31 35.081 C 72.26 30.745 74.289 24.595 76.118 19.042 L 65.193 21.447 M -57.326 39.092 C -39.771 67.94 0.805 78.238 30.853 66.506 C 41.112 62.504 50.842 56.775 58.501 48.578 C 60.772 46.144 64.206 43.282 65.071 39.893 C 65.783 37.081 64.26 33.744 63.519 31.071 C 62.954 29.03 62.605 25.969 61.182 24.348 C 59.38 22.306 55.651 24.016 53.487 24.486 C 46.273 26.052 38.928 27.343 31.632 28.445 C 14.485 31.043 -2.683 33.133 -19.876 35.309 C -32.197 36.87 -44.909 39.054 -57.326 39.092 Z" transform="matrix(1, 0.000271, -0.000271, 1, 0, 0)"/>
</svg>