<?xml version="1.0" encoding="utf-8"?>
<svg xmlns="http://www.w3.org/2000/svg" width="1080" height="311">
  <defs>
    <radialGradient gradientUnits="userSpaceOnUse" cx="102.701" cy="153.849" r="121.53" id="gradient-2" gradientTransform="matrix(1, 0, 0, 1, 170.000003, 0)">
      <stop offset="0" style="stop-color: rgb(22.745% 4.7059% 63.922%)"/>
      <stop offset="1" style="stop-color: rgb(9.9271% 0% 54.67%)"/>
    </radialGradient>
  </defs>
  <path style="stroke: none; stroke-width: 1; fill: rgb(255, 255, 255); visibility: hidden;" d="M -79.115 1.371 L -79.115 312.371 L 245.037 312.371 L 245.037 1.371 L -79.115 1.371 Z"/>
  <path style="stroke-width: 2; fill: rgb(255, 255, 255); stroke: rgb(29, 39, 58);" d="M 252.087 39.589 C 233.155 42.155 215.505 47.122 199.005 57.27 C 168.417 76.089 146.824 111.826 145.941 148.535 C 145.627 161.565 147.128 174.936 151.138 187.371 C 152.781 192.45 159.185 201.913 157.85 207.2 C 156.804 211.343 151.41 210.767 148.234 211.011 C 139.018 211.72 129.735 212.558 120.536 213.461 C 118.316 213.676 109.299 213.864 110.061 217.765 C 110.928 222.209 120.125 219.444 122.847 219.248 C 133.629 218.479 144.377 217.103 155.157 217.317 C 157.708 217.366 160.548 216.035 163.035 216.627 C 167.124 217.6 170.05 223.223 172.659 226.203 C 178.218 232.555 184.197 238.612 190.928 243.674 C 213.583 260.714 244.599 270.505 272.859 267.059 C 307.682 262.811 339.2 246.609 359.67 216.789 C 363.907 210.617 367.631 203.762 370.422 196.783 C 372.003 192.841 372.858 187.722 375.474 184.331 C 381.947 175.931 398.669 177.27 400.115 163.833 C 401.642 149.632 383.026 149.936 378.709 140.173 C 376.555 135.304 376.433 129.006 375.124 123.82 C 372.959 115.245 369.625 106.798 365.322 99.107 C 343.428 59.97 296.783 33.529 252.087 39.589 Z"/>
  <path style="stroke-width: 2; paint-order: fill; fill: url(&quot;#gradient-2&quot;); stroke: rgb(0, 0, 0);" d="M 162.364 203.353 C 173.533 198.062 182.745 185.004 191.402 176.207 L 227.409 139.621 C 234.492 132.422 242.538 125.53 248.317 117.197 C 242.937 115.332 237.255 114.292 232.055 111.864 C 229.998 110.903 228.047 109.729 226.265 108.307 C 214.443 98.857 221.891 87.766 232.055 80.719 C 253.52 65.839 279.177 62.56 302.908 53.464 C 292.391 46.401 275.717 45.207 263.416 45.202 C 221.532 45.186 180.581 67.829 161.516 106.575 C 145.83 138.453 149.51 171.508 162.364 203.353 M 305.23 59.365 C 284.171 63.782 261.579 70.203 242.509 80.478 C 236.617 83.653 225.616 89.132 225.616 97.128 C 225.616 106.868 246.622 113.298 254.124 110.579 C 260.465 108.28 265.75 100.662 270.385 95.953 C 281.905 84.247 295.844 72.904 305.23 59.365 M 316.845 59.365 C 320.69 76.405 325.927 93.292 330.62 110.115 C 332.084 115.366 332.839 125.299 337.187 128.894 C 340.377 131.532 345.525 131.929 349.368 133.043 C 357.198 135.315 364.855 138.241 372.598 140.801 C 371.213 108.09 346.224 72.245 316.845 59.365 M 311.038 61.725 C 295.089 77.932 275.239 93.745 262.254 112.476 C 284.538 118.334 307.421 121.464 329.622 127.819 C 326.402 113.547 322.1 99.419 318.169 85.329 C 316.025 77.639 314.797 68.757 311.038 61.725 M 167.01 210.435 C 182.21 207.567 198.087 207.078 213.471 205.515 C 242.128 202.601 270.993 198.924 299.423 194.202 C 310.279 192.4 321.16 190.674 331.945 188.483 C 335.149 187.831 341.387 187.727 343.482 184.779 C 345.961 181.289 342.404 173.908 341.4 170.307 C 338.069 158.367 333.577 146.021 331.945 133.72 C 314.469 130.057 297.156 125.598 279.677 121.921 C 273.385 120.598 263.972 117.051 257.609 118.426 C 253.778 119.256 250.966 122.789 248.317 125.46 L 233.217 140.801 L 187.917 186.83 C 180.89 193.972 171.249 201.2 167.01 210.435 M 337.752 136.08 C 342.126 151.855 348.184 168.268 350.529 184.47 C 356.125 182.996 365.135 182.422 369.591 178.464 C 371.537 176.735 371.867 173.919 372.306 171.482 C 373.378 165.543 376.515 152.485 371.897 147.531 C 369.545 145.007 365.269 144.221 362.144 143.161 C 354.174 140.459 346.088 137.327 337.752 136.08 M 379.568 150.243 C 379.568 159.142 378.343 167.418 377.243 176.207 C 382.838 174.57 394.43 170.612 394.229 163.213 C 394.035 156.122 384.937 152.528 379.568 150.243 M 352.852 189.192 C 353.758 196.024 356.125 202.511 357.498 209.255 C 363.378 202.874 366.393 193.824 369.113 185.651 L 352.852 189.192 M 170.495 215.156 C 196.629 257.61 257.029 272.765 301.746 255.503 C 317.014 249.61 331.496 241.179 342.891 229.118 C 346.277 225.535 351.389 221.323 352.67 216.337 C 353.73 212.198 351.464 207.29 350.366 203.353 C 349.528 200.351 349.008 195.847 346.883 193.461 C 344.206 190.456 338.65 192.972 335.429 193.663 C 324.691 195.969 313.766 197.867 302.908 199.492 C 277.389 203.312 251.831 206.388 226.248 209.591 C 207.902 211.888 188.988 215.103 170.495 215.156 Z"/>
</svg>