<?xml version="1.0" encoding="utf-8"?>
<svg xmlns="http://www.w3.org/2000/svg" width="200px" height="200px" xmlns:bx="https://boxy-svg.com">
  <defs>
    <radialGradient gradientUnits="userSpaceOnUse" cx="102.701" cy="153.849" r="121.53" id="gradient-2" gradientTransform="matrix(1, 0, 0, 1, -90.000001, -150.000002)">
      <stop offset="0" style="stop-color: rgb(22.745% 4.7059% 63.922%)"/>
      <stop offset="1" style="stop-color: rgb(9.9271% 0% 54.67%)"/>
    </radialGradient>
    <bx:guide x="0" y="0" angle="90"/>
  </defs>
  <path style="stroke: none; stroke-width: 1; fill: rgb(255, 255, 255); visibility: hidden;" d="M -79.115 1.371 L -79.115 312.371 L 245.037 312.371 L 245.037 1.371 L -79.115 1.371 Z"/>
  <path style="fill: rgb(255, 255, 255); stroke: rgb(29, 39, 58); stroke-width: 3px;" d="M -7.913 -110.41 C -26.845 -107.84 -44.495 -102.88 -60.995 -92.73 C -91.58 -73.911 -113.18 -38.174 -114.06 -1.465 C -114.37 11.565 -112.87 24.936 -108.86 37.371 C -107.22 42.45 -100.81 51.913 -102.15 57.2 C -103.2 61.343 -108.59 60.767 -111.77 61.011 C -120.98 61.72 -130.27 62.558 -139.46 63.461 C -141.68 63.676 -150.7 63.864 -149.94 67.765 C -149.07 72.209 -139.88 69.444 -137.15 69.248 C -126.37 68.479 -115.62 67.103 -104.84 67.317 C -102.29 67.366 -99.45 66.035 -96.97 66.627 C -92.88 67.6 -89.95 73.223 -87.34 76.203 C -81.78 82.555 -75.803 88.612 -69.072 93.674 C -46.417 110.714 -15.401 120.505 12.859 117.059 C 47.682 112.811 79.2 96.609 99.67 66.789 C 103.907 60.617 107.631 53.762 110.422 46.783 C 112.003 42.841 112.858 37.722 115.474 34.331 C 121.947 25.931 138.669 27.27 140.115 13.833 C 141.642 -0.368 123.026 -0.064 118.709 -9.827 C 116.555 -14.696 116.433 -20.994 115.124 -26.18 C 112.959 -34.755 109.625 -43.202 105.322 -50.893 C 83.428 -90.03 36.783 -116.47 -7.913 -110.41 Z"/>
  <path style="stroke-width: 2; paint-order: fill; fill: url(&quot;#gradient-2&quot;); stroke: rgb(0, 0, 0);" d="M -97.64 53.353 C -86.47 48.062 -77.255 35.004 -68.598 26.207 L -32.591 -10.379 C -25.508 -17.578 -17.462 -24.47 -11.683 -32.803 C -17.063 -34.668 -22.745 -35.708 -27.945 -38.136 C -30.002 -39.097 -31.953 -40.271 -33.735 -41.693 C -45.557 -51.143 -38.109 -62.234 -27.945 -69.281 C -6.48 -84.161 19.177 -87.44 42.908 -96.536 C 32.391 -103.6 15.717 -104.79 3.416 -104.8 C -38.468 -104.81 -79.42 -82.171 -98.48 -43.425 C -114.17 -11.547 -110.49 21.508 -97.64 53.353 M 45.23 -90.635 C 24.171 -86.218 1.579 -79.797 -17.491 -69.522 C -23.383 -66.347 -34.384 -60.868 -34.384 -52.872 C -34.384 -43.132 -13.378 -36.702 -5.876 -39.421 C 0.465 -41.72 5.75 -49.338 10.385 -54.047 C 21.905 -65.753 35.844 -77.096 45.23 -90.635 M 56.845 -90.635 C 60.69 -73.595 65.927 -56.708 70.62 -39.885 C 72.084 -34.634 72.839 -24.701 77.187 -21.106 C 80.377 -18.468 85.525 -18.071 89.368 -16.957 C 97.198 -14.685 104.855 -11.759 112.598 -9.199 C 111.213 -41.91 86.224 -77.755 56.845 -90.635 M 51.038 -88.275 C 35.089 -72.068 15.239 -56.255 2.254 -37.524 C 24.538 -31.666 47.421 -28.536 69.622 -22.181 C 66.402 -36.453 62.1 -50.581 58.169 -64.671 C 56.025 -72.361 54.797 -81.243 51.038 -88.275 M -92.99 60.435 C -77.79 57.567 -61.913 57.078 -46.529 55.515 C -17.872 52.601 10.993 48.924 39.423 44.202 C 50.279 42.4 61.16 40.674 71.945 38.483 C 75.149 37.831 81.387 37.727 83.482 34.779 C 85.961 31.289 82.404 23.908 81.4 20.307 C 78.069 8.367 73.577 -3.979 71.945 -16.28 C 54.469 -19.943 37.156 -24.402 19.677 -28.079 C 13.385 -29.402 3.972 -32.949 -2.391 -31.574 C -6.222 -30.744 -9.034 -27.211 -11.683 -24.54 L -26.783 -9.199 L -72.083 36.83 C -79.11 43.972 -88.75 51.2 -92.99 60.435 M 77.752 -13.92 C 82.126 1.855 88.184 18.268 90.529 34.47 C 96.125 32.996 105.135 32.422 109.591 28.464 C 111.537 26.735 111.867 23.919 112.306 21.482 C 113.378 15.543 116.515 2.485 111.897 -2.469 C 109.545 -4.993 105.269 -5.779 102.144 -6.839 C 94.174 -9.541 86.088 -12.673 77.752 -13.92 M 119.568 0.243 C 119.568 9.142 118.343 17.418 117.243 26.207 C 122.838 24.57 134.43 20.612 134.229 13.213 C 134.035 6.122 124.937 2.528 119.568 0.243 M 92.852 39.192 C 93.758 46.024 96.125 52.511 97.498 59.255 C 103.378 52.874 106.393 43.824 109.113 35.651 L 92.852 39.192 M -89.5 65.156 C -63.371 107.61 -2.971 122.765 41.746 105.503 C 57.014 99.61 71.496 91.179 82.891 79.118 C 86.277 75.535 91.389 71.323 92.67 66.337 C 93.73 62.198 91.464 57.29 90.366 53.353 C 89.528 50.351 89.008 45.847 86.883 43.461 C 84.206 40.456 78.65 42.972 75.429 43.663 C 64.691 45.969 53.766 47.867 42.908 49.492 C 17.389 53.312 -8.169 56.388 -33.752 59.591 C -52.098 61.888 -71.012 65.103 -89.5 65.156 Z"/>
</svg>